<svg xmlns="http://www.w3.org/2000/svg" height="20" width="20">
    <style>path{fill:#FFF}</style>
    <g transform="matrix(0.01972328,0,0,0.01960784,0,0)">
        <path d="m 608.418,924.57 c 0,-52.715 -42.727,-95.449 -95.434,-95.449 -52.711,0 -95.445,42.734 -95.445,95.449 0,52.696 42.734,95.43 95.445,95.43 52.707,0 95.434,-42.734 95.434,-95.43"/>
        <path d="m 190.879,512.98 c 0,-52.699 -42.734,-95.441 -95.4454,-95.441 C 42.7227,417.539 0,460.281 0,512.98 c 0,52.704 42.7227,95.45 95.4336,95.45 52.7114,0 95.4454,-42.746 95.4454,-95.45"/>
        <path d="m 1014.03,512.98 c 0,-52.699 -42.721,-95.441 -95.432,-95.441 -52.707,0 -95.446,42.742 -95.446,95.441 0,52.704 42.739,95.45 95.446,95.45 52.711,0 95.432,-42.746 95.432,-95.45"/>
        <path d="M 608.418,95.4375 C 608.418,42.7344 565.691,0 512.984,0 c -52.711,0 -95.445,42.7344 -95.445,95.4375 0,52.7075 42.734,95.4295 95.445,95.4295 52.707,0 95.434,-42.722 95.434,-95.4295"/>
        <path d="M 887.258,390.117 C 869.898,336.758 841.453,288.445 804.613,247.773 L 542.379,510 806.555,774.18 c 35.925,-40.254 63.66,-87.864 80.715,-140.325 12.539,4.094 25.882,6.379 39.792,6.379 4.981,0 9.868,-0.363 14.7,-0.898 -21.45,72.336 -60.594,137.109 -112.524,189.004 -51.777,51.805 -116.363,90.898 -188.484,112.383 0.148,-2.598 0.391,-5.157 0.391,-7.793 0,-16.16 -3.122,-31.563 -8.579,-45.813 51.539,-16.426 98.395,-43.23 138.325,-77.887 L 507.016,545.359 248.66,803.711 c 41.242,37.351 90.317,66.113 144.567,83.406 -5.457,14.25 -8.579,29.653 -8.579,45.813 0,2.636 0.247,5.195 0.395,7.793 C 312.914,919.238 248.336,880.145 196.562,828.34 144.773,776.582 105.688,712.031 84.195,639.922 c 2,0.098 3.9688,0.312 5.9961,0.312 16.7496,0 32.7146,-3.32 47.3906,-9.16 16.109,50.84 42.363,97.129 76.262,136.738 L 471.6597,510 215.6677,254.016 c -34.793,40.066 -61.668,87.117 -78.074,138.875 -14.684,-5.848 -30.645,-9.153 -47.4026,-9.153 -2.0234,0 -3.9844,0.207 -5.9766,0.305 21.4922,-72.09 60.5702,-136.621 112.347,-188.379 51.805,-51.824 116.43,-90.937 188.614,-112.422 -0.274,3.4453 -0.528,6.8945 -0.528,10.4101 0,15.3007 2.825,29.9027 7.739,43.5157 -52.992,17.02 -101.075,44.949 -141.66,81.184 l 256.289,256.296 261.695,-261.687 c -39.238,-33.574 -85.02,-59.641 -135.309,-75.793 4.918,-13.613 7.743,-28.215 7.743,-43.5157 0,-3.5156 -0.247,-6.9648 -0.524,-10.4101 72.176,21.4848 136.805,60.5978 188.617,112.422 51.914,51.902 91.067,116.648 112.516,188.977 -4.828,-0.559 -9.711,-0.903 -14.692,-0.903 -13.91,0 -27.265,2.278 -39.804,6.379"/>
    </g>
</svg>
