<svg xmlns="http://www.w3.org/2000/svg" viewBox="0 0 100 100"><path d="M65.1,5v31.4c-0.7,0-1.4-0.1-2-0.1c-16.9,0-30.6,13.7-30.6,30.6c0,1.1,0.1,2.3,0.2,3.4h-16c-1.4,0-2.5-1.1-2.5-2.6v-4.1h2.5  c2.2,0,4.1-1.6,4.1-3.6c0-2-1.8-3.6-4.1-3.6h-2.5v-4.1h2.5c2.2,0,4.1-1.6,4.1-3.6c0-2-1.8-3.6-4.1-3.6h-2.5v-4.1h2.5  c2.2,0,4.1-1.6,4.1-3.6c0-2-1.8-3.6-4.1-3.6h-2.5V30h2.5c2.2,0,4.1-1.6,4.1-3.6s-1.8-3.6-4.1-3.6h-2.5v-4.1h2.5  c2.2,0,4.1-1.6,4.1-3.6c0-2-1.8-3.6-4.1-3.6h-2.5V7.5c0-1.4,1.1-2.5,2.5-2.5H65.1z M16.6,58h-2.5h-2.6c-1.4,0-2.6,0.9-2.6,2  c0,1.1,1.1,2,2.6,2h2.6h2.5c1.4,0,2.5-0.9,2.5-2C19.1,59,18,58,16.6,58z M16.6,46.8h-2.5h-2.6c-1.4,0-2.6,0.9-2.6,2  c0,1.1,1.1,2,2.6,2h2.6h2.5c1.4,0,2.5-0.9,2.5-2C19.1,47.7,18,46.8,16.6,46.8z M16.6,35.6h-2.5h-2.6c-1.4,0-2.6,0.9-2.6,2  c0,1.1,1.1,2,2.6,2h2.6h2.5c1.4,0,2.5-0.9,2.5-2C19.1,36.5,18,35.6,16.6,35.6z M16.6,24.4h-2.5h-2.6c-1.4,0-2.6,0.9-2.6,2  c0,1.1,1.1,2,2.6,2h2.6h2.5c1.4,0,2.5-0.9,2.5-2C19.1,25.3,18,24.4,16.6,24.4z M11.5,17.2h2.6h2.5c1.4,0,2.5-0.9,2.5-2  c0-1.1-1.1-2-2.5-2h-2.5h-2.6c-1.4,0-2.6,0.9-2.6,2C8.9,16.3,10.1,17.2,11.5,17.2z M91.1,67c0-15.5-12.6-28-28-28  c-15.5,0-28,12.6-28,28s12.6,28,28,28C78.5,95,91.1,82.4,91.1,67z M86,67c0,12.7-10.3,22.9-23,22.9S40.1,79.6,40.1,67S50.4,44,63,44  S86,54.3,86,67z M67.6,71.5c0.5-0.5,0.7-1.1,0.7-1.8l0-20.8c0-1.4-1.1-2.6-2.5-2.6c-1.4,0-2.6,1.1-2.5,2.6v18.2H53l0,0  c-1.4,0-2.5,1.1-2.5,2.5c0,1.4,1.1,2.5,2.5,2.5l12.8,0l0,0C66.4,72.2,67.1,72,67.6,71.5z" fill="#777"></path></svg>
